<svg xmlns="http://www.w3.org/2000/svg" xmlns:xlink="http://www.w3.org/1999/xlink" style="z-index:1;position:relative" width="854" height="200" viewBox="0 0 854 200">
    <style>
                .text {
            font-size: 60px;
            font-weight: 700;
            font-family: -apple-system,BlinkMacSystemFont,Segoe UI,Helvetica,Arial,sans-serif,Apple Color Emoji,Segoe UI Emoji;
        }
        .desc {
            font-size: 20px;
            font-weight: 500;
            font-family: -apple-system,BlinkMacSystemFont,Segoe UI,Helvetica,Arial,sans-serif,Apple Color Emoji,Segoe UI Emoji;
        }

                    .text-outline {
            paint-order: stroke fill;
        }

            </style>
    <g transform="translate(427, 100) scale(1, 1) translate(-427, -100)">

                    <defs>
        <linearGradient id="linear" x1="0%" y1="0%" x2="100%" y2="0%">
            <stop offset="0%" stop-color="#70A3DE"/><stop offset="100%" stop-color="#05F1C5"/>
        </linearGradient>
    </defs>

                    <path d="" fill="url(#linear)" opacity="0.4" >
    <animate attributeName="d" dur="20s" repeatCount="indefinite" keyTimes="0;0.333;0.667;1" calcmod="spline" keySplines="0.2 0 0.2 1;0.2 0 0.2 1;0.2 0 0.2 1" begin="0s" values="M0 200L 0 80Q 213.5 40 427 70T 854 45L 854 200 Z;M0 200L 0 55Q 213.5 40 427 60T 854 70L 854 200 Z;M0 200L 0 35Q 213.5 65 427 35T 854 70L 854 200 Z;M0 200L 0 80Q 213.5 40 427 70T 854 45L 854 200 Z"></animate>
</path>
<path d="" fill="url(#linear)" opacity="0.4" >
    <animate attributeName="d" dur="20s" repeatCount="indefinite" keyTimes="0;0.333;0.667;1" calcmod="spline" keySplines="0.2 0 0.2 1;0.2 0 0.2 1;0.2 0 0.2 1" begin="-10s" values="M0 200L 0 65Q 213.5 20 427 50T 854 40L 854 200 Z;M0 200L 0 50Q 213.5 80 427 80T 854 60L 854 200 Z;M0 200L 0 55Q 213.5 75 427 50T 854 35L 854 200 Z;M0 200L 0 65Q 213.5 20 427 50T 854 40L 854 200 Z"></animate>
</path>
    </g>
            <path class="text-outline" fill="#FFC3EE" transform="matrix(0.06 0 0 -0.06 4.84 160.37)" d="M545 28 543 64 541 101 480 92V384H953V452H48V384H137V50Q95 44 54 41L61 -33Q228 -10 397 10V-82H480V20Q512 22 545 28ZM173 788V502H828V788ZM539 242Q579 151 649 80Q578 28 498 -5L538 -80Q629 -35 710 27Q809 -40 923 -80L961 3Q861 32 773 86Q846 162 892 258V334H519V262H583ZM260 720H742V673H260ZM260 567V614H742V567ZM799 262Q764 190 709 134Q649 188 615 262ZM222 60V136H397V82ZM222 384H397V323H222ZM222 259H397V198H222ZM1304 328V-74H1392V-16H1763V-74H1853V328ZM1024 -11 1105 -67Q1145 -5 1176 61Q1197 106 1211 154Q1229 220 1236 288Q1244 369 1245 451H1934V535H1245V652Q1415 659 1585 672Q1734 683 1882 703L1859 794Q1509 745 1157 739V496Q1157 410 1151 325Q1145 259 1128 195Q1114 150 1095 108Q1063 46 1024 -11ZM1392 245H1763V67H1392ZM2071 93Q2071 99 2078 99H2186Q2192 99 2192 93V-33Q2192 -41 2191 -44.5Q2190 -48 2185 -54L2090 -153Q2084 -159 2078 -159Q2071 -159 2071 -152ZM2471 282H3027Q3021 195 3014 109Q3011 86 3003 64Q2995 48 2981 37Q2968 29 2953 25Q2927 20 2900 20H2758L2776 -65H2928Q2971 -65 3013 -55Q3037 -49 3058 -35Q3082 -16 3095 13Q3108 48 3111 87Q3120 226 3126 367H2574L2585 472H3057V555H2593L2602 640H2508ZM2368 764V546H2459V678H3073V550H3169V764ZM2334 184V98H2955V184ZM3322 751V659H3690V-73H3788V456Q3945 342 4096 220L4157 301Q4000 423 3837 536L3788 468V659H4205V751ZM4349 757V663H4760Q4676 522 4560 406Q4446 292 4312 203L4377 120Q4565 258 4716 437V-71H4810V499H4764Q4823 577 4872 663H5180V757ZM4824 424Q4987 282 5143 132L5213 211Q5050 356 4882 495ZM5360 765V-74H5452V680H6061V79Q6061 62 6057 46Q6054 34 6045 27Q6037 21 6028 20Q6009 17 5991 17H5886L5904 -68H6021Q6054 -68 6088 -61Q6112 -56 6129 -39Q6141 -25 6146 -8Q6154 22 6154 55V765ZM5560 405V83H5953V405ZM5507 578V498H6007V578ZM5644 326H5869V161H5644ZM6609 -2 6667 -84Q6769 -30 6861 39Q6924 88 6972 152Q7062 50 7152 -53L7226 17Q7125 130 7023 241Q7048 301 7062 366Q7079 453 7085 543Q7092 664 7089 787H6997Q6997 668 6992 550Q6984 453 6961 360Q6938 280 6890 212Q6850 159 6799 116Q6758 84 6714 57Q6663 25 6609 -2ZM6346 51 6409 -24Q6443 9 6480 40Q6627 160 6778 278L6722 356Q6598 256 6474 158V764H6380V115Q6380 97 6372 81Q6361 64 6346 51ZM6595 762Q6675 630 6753 496L6833 543Q6753 677 6669 808ZM7809 797Q7848 726 7883 654H7613V566H7847V368H7628V278H7847V50H7574V-39H8214V50H7939V278H8159V368H7939V566H8190V654H7901L7971 685Q7931 760 7889 834ZM7295 265 7336 173Q7387 218 7434 271V-77H7523V379Q7570 442 7611 511L7536 560Q7489 482 7432 412Q7369 332 7295 265ZM7316 566 7363 487Q7441 554 7512 629Q7570 688 7620 755L7543 812Q7444 675 7316 566ZM8353 676V-79H8443V-23H8718V496L8797 447Q8836 511 8868 580H9087L9073 114Q9072 92 9066 71Q9062 59 9054 51Q9041 40 9025 37Q9001 33 8977 34H8859L8877 -59H9008Q9045 -59 9081 -51Q9108 -45 9129 -27Q9143 -13 9151 5Q9162 35 9163 69L9182 673H8906Q8933 743 8952 816L8862 837Q8838 743 8799 655Q8765 574 8718 501V676H8563Q8582 744 8598 813L8501 830Q8485 752 8463 676ZM8443 69V284H8628V69ZM8443 584H8628V376H8443ZM8781 424Q8860 321 8932 214L9011 267Q8931 373 8849 477ZM9775 808Q9798 765 9820 722H9597V51Q9599 16 9567 1L9605 -85Q9635 -68 9669 -58L9866 15L9854 104Q9770 71 9687 41V306H9771Q9799 234 9841 170Q9871 126 9908 89Q9959 39 10021 3Q10091 -38 10168 -68L10216 14Q10145 35 10080 68Q10032 93 9990 127Q10089 182 10185 244L10134 310Q10037 241 9933 185Q9888 240 9861 306H10118V722H9899L9917 727Q9890 783 9859 838ZM9531 263 9491 278 9444 296Q9386 126 9322 -40L9414 -74Q9471 95 9531 263ZM9687 644H10031V553H9687ZM9687 386V475H10031V386ZM9292 502Q9388 427 9482 350L9538 427L9347 575ZM9340 715Q9433 648 9525 578L9577 652Q9485 722 9391 789ZM10605 781V511H11115V781ZM10498 -12 10528 -88Q10626 -71 10723 -46Q10792 -28 10860 -3Q10925 -29 10994 -46Q11091 -69 11191 -83L11216 -5Q11084 7 10958 41Q11048 90 11121 165V230H10583V166H10659L10632 144Q10695 86 10769 42Q10635 5 10498 -12ZM10552 465V280H11170V465ZM10516 272 10477 282 10428 296Q10409 217 10386 140Q10357 40 10325 -58L10418 -83ZM10302 507Q10389 434 10473 358L10532 434Q10446 505 10358 574ZM10351 725Q10434 657 10516 586L10571 660Q10489 728 10404 793ZM10688 568V617H11033V568ZM10688 722H11033V673H10688ZM10721 166H11019Q10946 111 10863 76Q10786 111 10721 166ZM10810 411H10913V333H10810ZM11087 411V333H10985V411ZM10635 411H10737V333H10635ZM11314 649V558H11477V383H11343V-66H11431V-13H11632Q11630 -12 11630 -14L11691 -91Q11769 -42 11841 16Q11896 59 11944 111Q11987 59 12037 16Q12102 -41 12174 -90L12228 -2Q12158 41 12094 93Q12045 135 12003 185Q12053 259 12083 343Q12120 454 12134 570H12219V660H11901Q11926 727 11945 797L11857 817Q11828 707 11778 605Q11735 514 11675 434L11730 355Q11758 387 11782 424Q11814 294 11888 184Q11804 91 11698 26V383H11567V558H11729V649H11567V810H11477V649ZM11431 292H11612V76H11431ZM11864 570H12044Q12032 480 12006 393Q11983 324 11946 262Q11868 387 11847 534Q11855 551 11864 570ZM12410 629V449H12719V397H12370V331H12719V275H12306V209H12719V154H12362V86H12719V67Q12719 51 12715 37Q12712 29 12707 23Q12698 16 12687 13Q12670 10 12654 10H12534L12551 -68H12675Q12708 -68 12740 -61Q12757 -56 12772 -45Q12789 -30 12796 -8Q12804 20 12804 50V86H13044V47H13127V209H13210V275H13127V397H12804V449H13107V629H12804V681H13193V750H12804V820H12719V750H12323V681H12719V629ZM13044 331V275H12804V331ZM12804 209H13044V154H12804ZM12497 566H12719V511H12497ZM13019 566V511H12804V566ZM14024 399Q14024 330 13967 269Q13919 216 13847 187L13831 214Q13949 268 13949 380Q13949 515 13770 627V167Q13770 90 13719 45Q13660 -5 13587 -5Q13555 -5 13531 11Q13502 30 13502 59Q13502 109 13564 141Q13615 167 13670 167Q13694 167 13721 152V804H13770Q13776 760 13830 709Q13918 624 13958 570Q14024 479 14024 399Z" aria-label="最后,写下不同以往的浪漫故事♪" />

</svg>