<svg xmlns="http://www.w3.org/2000/svg" xmlns:xlink="http://www.w3.org/1999/xlink" style="z-index:1;position:relative" width="854" height="200" viewBox="0 0 854 200">
    <style>
                .text {
            font-size: 60px;
            font-weight: 700;
            font-family: -apple-system,BlinkMacSystemFont,Segoe UI,Helvetica,Arial,sans-serif,Apple Color Emoji,Segoe UI Emoji;
        }
        .desc {
            font-size: 20px;
            font-weight: 500;
            font-family: -apple-system,BlinkMacSystemFont,Segoe UI,Helvetica,Arial,sans-serif,Apple Color Emoji,Segoe UI Emoji;
        }

                    .text-outline {
            paint-order: stroke fill;
        }

            </style>
    <g transform="translate(427, 100) scale(1, 1) translate(-427, -100)">

                    <defs>
        <linearGradient id="linear" x1="0%" y1="0%" x2="100%" y2="0%">
            <stop offset="0%" stop-color="#70A3DE"/><stop offset="100%" stop-color="#05F1C5"/>
        </linearGradient>
    </defs>

                    <path d="" fill="url(#linear)" opacity="0.4" >
    <animate attributeName="d" dur="20s" repeatCount="indefinite" keyTimes="0;0.333;0.667;1" calcmod="spline" keySplines="0.2 0 0.2 1;0.2 0 0.2 1;0.2 0 0.2 1" begin="0s" values="M0 200L 0 80Q 213.5 40 427 70T 854 45L 854 200 Z;M0 200L 0 55Q 213.5 40 427 60T 854 70L 854 200 Z;M0 200L 0 35Q 213.5 65 427 35T 854 70L 854 200 Z;M0 200L 0 80Q 213.5 40 427 70T 854 45L 854 200 Z"></animate>
</path>
<path d="" fill="url(#linear)" opacity="0.4" >
    <animate attributeName="d" dur="20s" repeatCount="indefinite" keyTimes="0;0.333;0.667;1" calcmod="spline" keySplines="0.2 0 0.2 1;0.2 0 0.2 1;0.2 0 0.2 1" begin="-10s" values="M0 200L 0 65Q 213.5 20 427 50T 854 40L 854 200 Z;M0 200L 0 50Q 213.5 80 427 80T 854 60L 854 200 Z;M0 200L 0 55Q 213.5 75 427 50T 854 35L 854 200 Z;M0 200L 0 65Q 213.5 20 427 50T 854 40L 854 200 Z"></animate>
</path>
    </g>
            <path class="text-outline" fill="#FFC3EE" transform="matrix(0.054 0 0 -0.054 27.157 157.631)" d="M545 28 543 64 541 101 480 92V384H953V452H48V384H137V50Q95 44 54 41L61 -33Q228 -10 397 10V-82H480V20Q512 22 545 28ZM173 788V502H828V788ZM539 242Q579 151 649 80Q578 28 498 -5L538 -80Q629 -35 710 27Q809 -40 923 -80L961 3Q861 32 773 86Q846 162 892 258V334H519V262H583ZM260 720H742V673H260ZM260 567V614H742V567ZM799 262Q764 190 709 134Q649 188 615 262ZM222 60V136H397V82ZM222 384H397V323H222ZM222 259H397V198H222ZM1304 328V-74H1392V-16H1763V-74H1853V328ZM1024 -11 1105 -67Q1145 -5 1176 61Q1197 106 1211 154Q1229 220 1236 288Q1244 369 1245 451H1934V535H1245V652Q1415 659 1585 672Q1734 683 1882 703L1859 794Q1509 745 1157 739V496Q1157 410 1151 325Q1145 259 1128 195Q1114 150 1095 108Q1063 46 1024 -11ZM1392 245H1763V67H1392ZM2207 -133Q2235 -122 2255.5 -91.5Q2276 -61 2276 -21H2210V137H2340V-16Q2340 -82 2299.5 -126Q2259 -170 2207 -185ZM3208 282H3764Q3758 195 3751 109Q3748 86 3740 64Q3732 48 3718 37Q3705 29 3690 25Q3664 20 3637 20H3495L3513 -65H3665Q3708 -65 3750 -55Q3774 -49 3795 -35Q3819 -16 3832 13Q3845 48 3848 87Q3857 226 3863 367H3311L3322 472H3794V555H3330L3339 640H3245ZM3105 764V546H3196V678H3810V550H3906V764ZM3071 184V98H3692V184ZM4059 751V659H4427V-73H4525V456Q4682 342 4833 220L4894 301Q4737 423 4574 536L4525 468V659H4942V751ZM5086 757V663H5497Q5413 522 5297 406Q5183 292 5049 203L5114 120Q5302 258 5453 437V-71H5547V499H5501Q5560 577 5609 663H5917V757ZM5561 424Q5724 282 5880 132L5950 211Q5787 356 5619 495ZM6097 765V-74H6189V680H6798V79Q6798 62 6794 46Q6791 34 6782 27Q6774 21 6765 20Q6746 17 6728 17H6623L6641 -68H6758Q6791 -68 6825 -61Q6849 -56 6866 -39Q6878 -25 6883 -8Q6891 22 6891 55V765ZM6297 405V83H6690V405ZM6244 578V498H6744V578ZM6381 326H6606V161H6381ZM7346 -2 7404 -84Q7506 -30 7598 39Q7661 88 7709 152Q7799 50 7889 -53L7963 17Q7862 130 7760 241Q7785 301 7799 366Q7816 453 7822 543Q7829 664 7826 787H7734Q7734 668 7729 550Q7721 453 7698 360Q7675 280 7627 212Q7587 159 7536 116Q7495 84 7451 57Q7400 25 7346 -2ZM7083 51 7146 -24Q7180 9 7217 40Q7364 160 7515 278L7459 356Q7335 256 7211 158V764H7117V115Q7117 97 7109 81Q7098 64 7083 51ZM7332 762Q7412 630 7490 496L7570 543Q7490 677 7406 808ZM8546 797Q8585 726 8620 654H8350V566H8584V368H8365V278H8584V50H8311V-39H8951V50H8676V278H8896V368H8676V566H8927V654H8638L8708 685Q8668 760 8626 834ZM8032 265 8073 173Q8124 218 8171 271V-77H8260V379Q8307 442 8348 511L8273 560Q8226 482 8169 412Q8106 332 8032 265ZM8053 566 8100 487Q8178 554 8249 629Q8307 688 8357 755L8280 812Q8181 675 8053 566ZM9090 676V-79H9180V-23H9455V496L9534 447Q9573 511 9605 580H9824L9810 114Q9809 92 9803 71Q9799 59 9791 51Q9778 40 9762 37Q9738 33 9714 34H9596L9614 -59H9745Q9782 -59 9818 -51Q9845 -45 9866 -27Q9880 -13 9888 5Q9899 35 9900 69L9919 673H9643Q9670 743 9689 816L9599 837Q9575 743 9536 655Q9502 574 9455 501V676H9300Q9319 744 9335 813L9238 830Q9222 752 9200 676ZM9180 69V284H9365V69ZM9180 584H9365V376H9180ZM9518 424Q9597 321 9669 214L9748 267Q9668 373 9586 477ZM10512 808Q10535 765 10557 722H10334V51Q10336 16 10304 1L10342 -85Q10372 -68 10406 -58L10603 15L10591 104Q10507 71 10424 41V306H10508Q10536 234 10578 170Q10608 126 10645 89Q10696 39 10758 3Q10828 -38 10905 -68L10953 14Q10882 35 10817 68Q10769 93 10727 127Q10826 182 10922 244L10871 310Q10774 241 10670 185Q10625 240 10598 306H10855V722H10636L10654 727Q10627 783 10596 838ZM10268 263 10228 278 10181 296Q10123 126 10059 -40L10151 -74Q10208 95 10268 263ZM10424 644H10768V553H10424ZM10424 386V475H10768V386ZM10029 502Q10125 427 10219 350L10275 427L10084 575ZM10077 715Q10170 648 10262 578L10314 652Q10222 722 10128 789ZM11342 781V511H11852V781ZM11235 -12 11265 -88Q11363 -71 11460 -46Q11529 -28 11597 -3Q11662 -29 11731 -46Q11828 -69 11928 -83L11953 -5Q11821 7 11695 41Q11785 90 11858 165V230H11320V166H11396L11369 144Q11432 86 11506 42Q11372 5 11235 -12ZM11289 465V280H11907V465ZM11253 272 11214 282 11165 296Q11146 217 11123 140Q11094 40 11062 -58L11155 -83ZM11039 507Q11126 434 11210 358L11269 434Q11183 505 11095 574ZM11088 725Q11171 657 11253 586L11308 660Q11226 728 11141 793ZM11425 568V617H11770V568ZM11425 722H11770V673H11425ZM11458 166H11756Q11683 111 11600 76Q11523 111 11458 166ZM11547 411H11650V333H11547ZM11824 411V333H11722V411ZM11372 411H11474V333H11372ZM12051 649V558H12214V383H12080V-66H12168V-13H12369Q12367 -12 12367 -14L12428 -91Q12506 -42 12578 16Q12633 59 12681 111Q12724 59 12774 16Q12839 -41 12911 -90L12965 -2Q12895 41 12831 93Q12782 135 12740 185Q12790 259 12820 343Q12857 454 12871 570H12956V660H12638Q12663 727 12682 797L12594 817Q12565 707 12515 605Q12472 514 12412 434L12467 355Q12495 387 12519 424Q12551 294 12625 184Q12541 91 12435 26V383H12304V558H12466V649H12304V810H12214V649ZM12168 292H12349V76H12168ZM12601 570H12781Q12769 480 12743 393Q12720 324 12683 262Q12605 387 12584 534Q12592 551 12601 570ZM13147 629V449H13456V397H13107V331H13456V275H13043V209H13456V154H13099V86H13456V67Q13456 51 13452 37Q13449 29 13444 23Q13435 16 13424 13Q13407 10 13391 10H13271L13288 -68H13412Q13445 -68 13477 -61Q13494 -56 13509 -45Q13526 -30 13533 -8Q13541 20 13541 50V86H13781V47H13864V209H13947V275H13864V397H13541V449H13844V629H13541V681H13930V750H13541V820H13456V750H13060V681H13456V629ZM13781 331V275H13541V331ZM13541 209H13781V154H13541ZM13234 566H13456V511H13234ZM13756 566V511H13541V566ZM14761 399Q14761 330 14704 269Q14656 216 14584 187L14568 214Q14686 268 14686 380Q14686 515 14507 627V167Q14507 90 14456 45Q14397 -5 14324 -5Q14292 -5 14268 11Q14239 30 14239 59Q14239 109 14301 141Q14352 167 14407 167Q14431 167 14458 152V804H14507Q14513 760 14567 709Q14655 624 14695 570Q14761 479 14761 399Z" aria-label="最后，写下不同以往的浪漫故事♪" />

</svg>