<svg xmlns="http://www.w3.org/2000/svg" xmlns:xlink="http://www.w3.org/1999/xlink" style="z-index:1;position:relative" width="854" height="200" viewBox="0 0 854 200">
    <style>
                .text {
            font-size: 70px;
            font-weight: 700;
            font-family: -apple-system,BlinkMacSystemFont,Segoe UI,Helvetica,Arial,sans-serif,Apple Color Emoji,Segoe UI Emoji;
        }
        .desc {
            font-size: 20px;
            font-weight: 500;
            font-family: -apple-system,BlinkMacSystemFont,Segoe UI,Helvetica,Arial,sans-serif,Apple Color Emoji,Segoe UI Emoji;
        }

                    .text-outline {
            paint-order: stroke fill;
        }

            </style>
    <g transform="translate(427, 100) scale(1, 1) translate(-427, -100)">

                    <defs>
        <linearGradient id="linear" x1="0%" y1="0%" x2="100%" y2="0%">
            <stop offset="0%" stop-color="#09CEC3"/><stop offset="100%" stop-color="#8CA6DB"/>
        </linearGradient>
    </defs>

                    <path d="" fill="url(#linear)" opacity="0.4" >
    <animate attributeName="d" dur="20s" repeatCount="indefinite" keyTimes="0;0.333;0.667;1" calcmod="spline" keySplines="0.2 0 0.2 1;0.2 0 0.2 1;0.2 0 0.2 1" begin="0s" values="M0 0L 0 120Q 213.5 160 427 130T 854 155L 854 0 Z;M0 0L 0 145Q 213.5 160 427 140T 854 130L 854 0 Z;M0 0L 0 165Q 213.5 135 427 165T 854 130L 854 0 Z;M0 0L 0 120Q 213.5 160 427 130T 854 155L 854 0 Z"></animate>
</path>
<path d="" fill="url(#linear)" opacity="0.4" >
    <animate attributeName="d" dur="20s" repeatCount="indefinite" keyTimes="0;0.333;0.667;1" calcmod="spline" keySplines="0.2 0 0.2 1;0.2 0 0.2 1;0.2 0 0.2 1" begin="-10s" values="M0 0L 0 135Q 213.5 180 427 150T 854 160L 854 0 Z;M0 0L 0 150Q 213.5 120 427 120T 854 140L 854 0 Z;M0 0L 0 145Q 213.5 125 427 150T 854 165L 854 0 Z;M0 0L 0 135Q 213.5 180 427 150T 854 160L 854 0 Z"></animate>
</path>
    </g>
            <path class="text-outline" fill="#f7f5f5" transform="matrix(0.07 0 0 -0.07 151.515 86.145)" d="M57 520Q136 409 213 297Q141 143 28 17L101 -50Q202 68 271 209Q317 137 363 66L442 118Q379 213 315 307Q376 470 405 642V730H68V642H310Q294 515 253 396Q191 485 128 573ZM318 -14 387 -90Q485 -19 562 72Q619 141 652 224Q683 139 738 68Q806 -17 898 -80L963 -2Q914 29 870 66Q818 111 777 167Q740 220 717 281Q695 343 689 409Q689 423 690 438Q690 490 691 542H601Q601 490 601 439Q599 367 582 298Q564 233 526 177Q495 132 456 93Q391 34 318 -14ZM389 443 465 394Q521 488 561 591H837L756 427L837 394L928 596V680H594Q614 741 630 804L541 821Q494 620 389 443ZM1597 752V61H1685V663H1817V310Q1817 294 1813 279Q1811 269 1803 262Q1795 257 1787 255Q1769 252 1752 252H1704L1722 162H1786Q1814 161 1842 167Q1863 173 1880 187Q1896 204 1902 226Q1906 247 1907 269V752ZM1030 25 1077 -69 1209 61Q1235 27 1269 1Q1291 -15 1317 -26Q1352 -41 1391 -46Q1437 -51 1485 -51H1942L1959 36H1500Q1456 35 1412 41Q1377 46 1344 61Q1321 72 1302 88Q1273 114 1251 147V487H1048V398H1159V146ZM1326 218 1357 130 1400 150Q1489 189 1578 231L1568 332L1438 268V661Q1518 685 1595 722L1559 809Q1457 762 1349 734V258Q1349 247 1345 238Q1337 226 1326 218ZM1076 741Q1147 649 1217 556L1290 618Q1221 709 1149 798ZM2073 725V644H2385Q2223 525 2031 468L2067 379Q2127 402 2186 430V107H2806V432Q2864 406 2924 384L2959 474Q2864 501 2774 542Q2682 583 2602 644H2919V725H2543V818H2448V725ZM2070 34V-46H2922V34ZM2543 470V592Q2648 502 2775 446H2219Q2342 505 2448 591V470ZM2279 179V243H2713V179ZM2279 375H2713V312H2279ZM3127 626V554H3352Q3338 524 3323 496H3054V424H3279Q3235 362 3181 310Q3112 244 3032 191L3086 115Q3161 169 3230 233V-82H3317V-42H3738V-81H3824V367H3349Q3369 394 3387 424H3934V496H3425L3449 554H3861V626H3473Q3482 658 3490 692Q3681 702 3872 721L3864 803Q3480 763 3095 756L3101 677Q3249 678 3397 687L3379 626ZM3317 298H3738V251H3317ZM3317 75H3738V28H3317ZM3317 186H3738V139H3317ZM4359 65 4405 -19Q4517 34 4620 106Q4636 61 4661 21Q4684 -20 4721 -51Q4756 -77 4800 -78Q4841 -79 4870 -50Q4887 -33 4897 -11Q4907 11 4915 33Q4933 98 4950 165L4870 203Q4859 146 4844 91Q4837 61 4824 33Q4816 20 4800 20Q4782 20 4768 31Q4751 46 4739 66Q4709 110 4692 161Q4814 261 4904 392L4830 437Q4761 332 4666 252Q4645 352 4638 455H4938V541H4631Q4627 579 4626 618Q4620 715 4618 813H4528Q4531 713 4537 614L4541 541H4336V672Q4405 683 4473 700L4459 784Q4270 740 4077 724L4084 641Q4164 647 4244 658V541H4053V455H4244V308Q4149 288 4054 274L4068 184L4244 220V78Q4244 64 4242 50Q4241 40 4234 33Q4228 28 4221 26Q4204 23 4188 24H4084L4102 -62H4205Q4237 -62 4269 -55Q4293 -49 4310 -33Q4322 -21 4328 -5Q4336 22 4336 51V238L4504 271L4499 313L4493 359Q4414 341 4336 327V455H4549Q4560 323 4592 195Q4481 118 4359 65ZM4668 731Q4750 652 4830 571L4894 632Q4812 712 4726 788ZM5090 676V-79H5180V-23H5455V496L5534 447Q5573 511 5605 580H5824L5810 114Q5809 92 5803 71Q5799 59 5791 51Q5778 40 5762 37Q5738 33 5714 34H5596L5614 -59H5745Q5782 -59 5818 -51Q5845 -45 5866 -27Q5880 -13 5888 5Q5899 35 5900 69L5919 673H5643Q5670 743 5689 816L5599 837Q5575 743 5536 655Q5502 574 5455 501V676H5300Q5319 744 5335 813L5238 830Q5222 752 5200 676ZM5180 69V284H5365V69ZM5180 584H5365V376H5180ZM5518 424Q5597 321 5669 214L5748 267Q5668 373 5586 477ZM6401 571V145H6489V491H6802V144H6890V571H6675Q6688 625 6700 680H6945V764H6390V680H6602Q6590 625 6577 571ZM6378 129 6372 176 6365 222 6256 195V654H6365V742H6058V654H6164V173Q6100 157 6037 145L6054 52Q6215 92 6378 129ZM6298 -1 6351 -81Q6445 -45 6531 7Q6567 29 6599 59Q6625 84 6645 115Q6771 22 6894 -75L6948 2Q6814 99 6678 193Q6689 243 6689 296V450H6599V314Q6600 259 6587 207Q6574 159 6539 124Q6505 93 6465 71Q6384 29 6298 -1ZM7159 767V-83H7254V-20H7749V-80H7843V767ZM7254 218H7749V71H7254ZM7254 448H7749V306H7254ZM7254 676H7749V535H7254Z" aria-label="欢迎查看我的项目" />

</svg>
        